<svg id="Layer_1" data-name="Layer 1" xmlns="http://www.w3.org/2000/svg" viewBox="0 0 595.28 841.89"><defs><style>.cls-1{fill:#094a28;}.cls-2{fill:#589441;}.cls-3{fill:#fff;}</style></defs><title>Urban green</title><circle class="cls-1" cx="412.64" cy="584.35" r="13.54"/><circle class="cls-1" cx="179.35" cy="584.35" r="13.54"/><rect class="cls-2" x="138.47" y="244" width="318.69" height="340.34" rx="22.21"/><circle class="cls-3" cx="297.82" cy="437.77" r="119.67"/><circle class="cls-1" cx="412.64" cy="275.95" r="7.27"/><circle class="cls-1" cx="378.53" cy="275.63" r="7.27"/><rect class="cls-1" x="169.91" y="271.68" width="74.26" height="8.8"/><rect class="cls-1" x="138.11" y="295.41" width="319.05" height="5.09"/><path class="cls-1" d="M207.72,495.79a78.18,78.18,0,0,1-17.84-38.06,87.61,87.61,0,0,1-.74-21.28A103,103,0,0,1,193,415.5c8-27.29,26.18-51.65,50.53-66.63a106.25,106.25,0,0,1,40-14.43,111.79,111.79,0,0,1,21.32-1c3.56.16,7.1.55,10.63,1,1.76.3,3.52.57,5.26.92s3.49.69,5.21,1.17a118.61,118.61,0,0,1,38.7,17.36,121.18,121.18,0,0,1,30.09,29.71c-16.94-22.63-41.72-39.26-69.15-45.58a112.26,112.26,0,0,0-41.8-1.83,104.41,104.41,0,0,0-39.2,14.34,112.68,112.68,0,0,0-31,28.09,120.48,120.48,0,0,0-19.13,37.27,102.1,102.1,0,0,0-4.12,20.62,87.48,87.48,0,0,0,.45,21c.29,1.73.51,3.48.93,5.19l.57,2.57.69,2.55a76.85,76.85,0,0,0,3.65,9.9A86.23,86.23,0,0,0,207.72,495.79Z"/><path class="cls-1" d="M191.36,465.54a110.58,110.58,0,0,0,21.7,40.92c33.34,39.42,82.4,39.45,86.33,39.38,36.58-.59,61.38-19.49,68.79-25.63a113.37,113.37,0,0,0,36-54.45c-8.63,14.62-24.7,22.66-40.39,20.35-18.41-2.71-27.51-18.38-28.6-20.35a43.72,43.72,0,0,1-39.06,20.9c-22.39-1-34.07-19.34-35-20.9-1.41,1.82-13.68,17.07-34.83,17.05S192.74,467.34,191.36,465.54Z"/><circle class="cls-2" cx="338.72" cy="498.37" r="7.27"/><circle class="cls-2" cx="304.19" cy="514.69" r="4.98"/><circle class="cls-2" cx="331.46" cy="524.65" r="4.98"/><path class="cls-1" d="M315.92,365.1q-9.06,11.2-18.39,22.17t-18.81,21.8q-9.51,10.81-19.14,21.52T240,451.73q9-11.21,18.39-22.17t18.81-21.8c6.34-7.21,12.7-14.4,19.15-21.51S309.3,372.06,315.92,365.1Z"/><path class="cls-1" d="M346,402.36q-6.94,8.81-14.17,17.36c-4.8,5.72-9.69,11.36-14.6,17s-9.88,11.19-14.92,16.7-10.14,11-15.35,16.33q6.94-8.81,14.18-17.36c4.8-5.72,9.68-11.36,14.59-17s9.89-11.19,14.93-16.7S340.78,407.72,346,402.36Z"/></svg>